<?xml version="1.0" encoding="UTF-8"?>
<!DOCTYPE svg PUBLIC "-//W3C//DTD SVG 1.1//EN" "http://www.w3.org/Graphics/SVG/1.1/DTD/svg11.dtd">
<svg xmlns="http://www.w3.org/2000/svg" version="1.1" width="1771px" height="1605px" style="shape-rendering:geometricPrecision; text-rendering:geometricPrecision; image-rendering:optimizeQuality; fill-rule:evenodd; clip-rule:evenodd" xmlns:xlink="http://www.w3.org/1999/xlink">
<g><path style="opacity:0.985" fill="#91c150" d="M 518.5,95.5 C 521.187,95.3359 523.854,95.5026 526.5,96C 509.818,139.564 486.651,179.064 457,214.5C 443.032,230.14 426.532,242.306 407.5,251C 391.287,257.541 374.62,259.541 357.5,257C 345.734,270.763 334.734,285.097 324.5,300C 353.105,284.56 383.772,278.56 416.5,282C 450.926,285.773 483.593,295.439 514.5,311C 482.64,337.484 447.64,359.151 409.5,376C 381.849,387.943 353.182,391.61 323.5,387C 308.342,383.34 295.175,376.174 284,365.5C 265.044,397.406 249.377,430.739 237,465.5C 263.133,432.845 297.3,415.012 339.5,412C 373.427,409.026 406.76,412.193 439.5,421.5C 414.05,454.77 383.717,483.27 348.5,507C 329.174,519.494 308.174,527.828 285.5,532C 261.211,535.637 239.378,530.137 220,515.5C 204.057,564.554 195.057,614.887 193,666.5C 201.274,633.561 219.107,607.061 246.5,587C 283.448,562.377 324.114,547.543 368.5,542.5C 356.396,583.369 338.896,621.702 316,657.5C 302.075,678.759 284.241,695.926 262.5,709C 240.078,721.371 216.745,723.538 192.5,715.5C 192.257,756.892 197.424,797.559 208,837.5C 215.643,809.702 229.81,785.869 250.5,766C 278.321,740.045 310.321,720.878 346.5,708.5C 343.723,749.497 335.89,789.497 323,828.5C 313.413,857.205 297.246,881.372 274.5,901C 261.386,910.552 246.719,916.219 230.5,918C 241.017,947.214 252.517,976.048 265,1004.5C 270.829,970.518 284.496,940.185 306,913.5C 320.667,894.833 337.333,878.167 356,863.5C 370.358,913.713 374.358,964.713 368,1016.5C 363.856,1044.29 351.689,1067.79 331.5,1087C 325.335,1091.25 319.002,1095.25 312.5,1099C 332.741,1133.99 355.574,1167.16 381,1198.5C 369.097,1164.86 368.431,1130.86 379,1096.5C 389.531,1063.1 405.531,1032.76 427,1005.5C 447.19,1042.07 461.856,1080.73 471,1121.5C 477.824,1150.15 476.824,1178.48 468,1206.5C 460.542,1226.62 447.375,1241.79 428.5,1252C 460.933,1285.45 497.099,1313.95 537,1337.5C 509.733,1299.54 500.4,1257.2 509,1210.5C 514.344,1178.13 524.678,1147.47 540,1118.5C 540.718,1117.55 541.551,1117.38 542.5,1118C 569.315,1152.77 591.148,1190.61 608,1231.5C 619.384,1259.96 622.718,1289.29 618,1319.5C 613.939,1337.8 605.105,1353.3 591.5,1366C 625.395,1384.45 659.728,1402.11 694.5,1419C 697.505,1420.35 700.505,1421.35 703.5,1422C 676.038,1394.57 660.205,1361.4 656,1322.5C 652.722,1297.84 652.722,1273.17 656,1248.5C 656.772,1239.24 658.606,1230.24 661.5,1221.5C 700.44,1249.61 734.274,1282.94 763,1321.5C 775.493,1339.82 784.159,1359.82 789,1381.5C 792.249,1400 790.582,1418 784,1435.5C 781.627,1441.19 778.46,1446.36 774.5,1451C 810.955,1463.65 847.622,1475.82 884.5,1487.5C 921.132,1475.79 957.632,1463.79 994,1451.5C 980.064,1429.47 975.731,1405.47 981,1379.5C 985.794,1358.92 994.127,1339.92 1006,1322.5C 1023.3,1298.2 1043.13,1276.03 1065.5,1256C 1079.47,1244.02 1093.8,1232.52 1108.5,1221.5C 1113.74,1242.65 1116.07,1264.15 1115.5,1286C 1116.6,1320.52 1109.76,1353.36 1095,1384.5C 1087.06,1399.11 1076.89,1411.94 1064.5,1423C 1069.5,1421.34 1074.5,1419.34 1079.5,1417C 1112.66,1400.26 1145.66,1383.26 1178.5,1366C 1158.19,1346.6 1148.53,1322.77 1149.5,1294.5C 1149.96,1268.72 1155.46,1244.05 1166,1220.5C 1182.31,1183.17 1203.15,1148.83 1228.5,1117.5C 1255.91,1165.72 1266.74,1217.39 1261,1272.5C 1257.22,1296.88 1247.39,1318.38 1231.5,1337C 1233.6,1336.97 1235.6,1336.3 1237.5,1335C 1275.34,1311.51 1310.01,1283.85 1341.5,1252C 1318.45,1239.45 1303.95,1220.28 1298,1194.5C 1292.53,1164.89 1293.87,1135.56 1302,1106.5C 1311.76,1071.22 1325.43,1037.55 1343,1005.5C 1376.1,1046.62 1394.6,1093.62 1398.5,1146.5C 1398.05,1154.88 1397.22,1163.21 1396,1171.5C 1394.04,1180.7 1391.7,1189.7 1389,1198.5C 1414.1,1167.13 1436.6,1133.97 1456.5,1099C 1436.53,1088.03 1421.69,1072.19 1412,1051.5C 1399.84,1018.9 1395.51,985.233 1399,950.5C 1401.1,920.923 1406.1,891.923 1414,863.5C 1449.63,891.46 1476.63,926.127 1495,967.5C 1499.36,979.58 1502.69,991.914 1505,1004.5C 1517.84,976.131 1529.01,947.131 1538.5,917.5C 1521.24,916.036 1505.91,909.87 1492.5,899C 1471.45,879.751 1456.29,856.585 1447,829.5C 1433.79,790.222 1425.95,749.889 1423.5,708.5C 1464.67,722.846 1500.17,745.846 1530,777.5C 1545.64,795.107 1556.31,815.44 1562,838.5C 1571.68,798.068 1577.18,757.068 1578.5,715.5C 1552.28,723.875 1527.28,721.042 1503.5,707C 1487.12,696.292 1472.96,683.126 1461,667.5C 1442.4,642.318 1427.4,614.984 1416,585.5C 1410.43,571.47 1405.27,557.303 1400.5,543C 1442.58,547.359 1481.58,560.693 1517.5,583C 1548.57,603.636 1568.41,632.136 1577,668.5C 1574.76,616.702 1565.92,566.036 1550.5,516.5C 1550,515.479 1549.33,515.312 1548.5,516C 1529.56,530.401 1508.23,535.734 1484.5,532C 1463.01,528.254 1443.01,520.587 1424.5,509C 1388.61,484.952 1356.95,456.118 1329.5,422.5C 1329.71,421.914 1330.04,421.414 1330.5,421C 1371.48,409.688 1412.81,408.021 1454.5,416C 1487.01,423.211 1513.18,440.045 1533,466.5C 1520.45,432.053 1505.12,398.72 1487,366.5C 1486.28,365.549 1485.45,365.383 1484.5,366C 1467.36,382.273 1446.86,390.107 1423,389.5C 1403.17,389.001 1384,385.168 1365.5,378C 1325.44,361.15 1288.77,338.984 1255.5,311.5C 1300.91,286.852 1349.24,277.685 1400.5,284C 1416.44,287.199 1431.44,292.532 1445.5,300C 1435.27,285.097 1424.27,270.763 1412.5,257C 1382.9,260.689 1356.56,253.022 1333.5,234C 1310.23,213.742 1291.06,190.242 1276,163.5C 1263.56,141.962 1252.73,119.629 1243.5,96.5C 1285.28,96.9462 1324.62,107.113 1361.5,127C 1403.51,151.372 1426.34,187.872 1430,236.5C 1436.67,245.167 1443.33,253.833 1450,262.5C 1448.18,233.892 1452.52,206.225 1463,179.5C 1473.69,152.43 1488.19,127.763 1506.5,105.5C 1528.29,146.356 1542.79,189.689 1550,235.5C 1553.92,263.089 1549.92,289.423 1538,314.5C 1529.95,328.052 1519.11,338.719 1505.5,346.5C 1518.04,368.238 1529.54,390.571 1540,413.5C 1548.34,374.811 1565.68,340.811 1592,311.5C 1601.7,300.131 1612.37,289.798 1624,280.5C 1638.5,325.677 1644.5,372.011 1642,419.5C 1640.14,444.748 1632.14,467.748 1618,488.5C 1607.1,501.693 1593.6,511.026 1577.5,516.5C 1585.47,544.173 1591.97,572.173 1597,600.5C 1609.68,576.471 1626.18,555.304 1646.5,537C 1664.64,521.027 1684.31,507.194 1705.5,495.5C 1709.51,536.422 1707.67,577.088 1700,617.5C 1693.76,649.812 1679.26,677.645 1656.5,701C 1641.23,713.963 1623.56,721.463 1603.5,723.5C 1602.45,757.896 1598.62,791.896 1592,825.5C 1617.09,797.186 1647.59,776.686 1683.5,764C 1700.67,757.457 1718.34,752.957 1736.5,750.5C 1727.46,791.121 1712.63,829.454 1692,865.5C 1675.62,893.876 1652.79,915.376 1623.5,930C 1603.01,938.24 1582.01,940.24 1560.5,936C 1550.27,964.122 1538.94,991.789 1526.5,1019C 1560.43,997.501 1597.77,986.168 1638.5,985C 1657.75,984.034 1676.92,984.867 1696,987.5C 1696.83,987.833 1697.67,988.167 1698.5,988.5C 1673.92,1023.92 1645.25,1055.75 1612.5,1084C 1594.4,1098.89 1574.07,1109.89 1551.5,1117C 1526.92,1124.15 1503.25,1122.15 1480.5,1111C 1463.4,1140.09 1444.74,1168.09 1424.5,1195C 1456.97,1182.4 1490.63,1178.07 1525.5,1182C 1549.09,1184.31 1572.09,1189.31 1594.5,1197C 1595.96,1197.42 1596.46,1198.26 1596,1199.5C 1568.39,1227.8 1537.89,1252.3 1504.5,1273C 1478.26,1289.19 1449.76,1298.36 1419,1300.5C 1394.1,1300.98 1373.1,1292.32 1356,1274.5C 1338.39,1291.78 1319.89,1307.95 1300.5,1323C 1329.47,1323.19 1357.47,1328.53 1384.5,1339C 1409.94,1348.72 1433.94,1361.05 1456.5,1376C 1457.83,1377 1457.83,1378 1456.5,1379C 1423.43,1399.37 1388.43,1415.7 1351.5,1428C 1323.83,1437 1295.5,1440.33 1266.5,1438C 1232.39,1434.49 1205.89,1418.65 1187,1390.5C 1156.35,1407.57 1125.19,1423.74 1093.5,1439C 1133.96,1445.24 1169.96,1461.24 1201.5,1487C 1218.95,1500.95 1234.95,1516.45 1249.5,1533.5C 1196.84,1549.12 1143.18,1554.62 1088.5,1550C 1060.3,1547.05 1035.3,1536.72 1013.5,1519C 1002.51,1508.04 994.012,1495.54 988,1481.5C 967.319,1487.95 946.819,1494.78 926.5,1502C 956.641,1512.49 986.308,1524.16 1015.5,1537C 1026.98,1542.24 1037.98,1548.24 1048.5,1555C 1052.31,1557.65 1055.65,1560.81 1058.5,1564.5C 1052.3,1570.19 1045.8,1575.52 1039,1580.5C 1021.43,1568.46 1002.59,1558.63 982.5,1551C 950.369,1538.18 917.869,1526.35 885,1515.5C 837.502,1530.33 791.335,1548.5 746.5,1570C 741.481,1572.84 736.814,1576.18 732.5,1580C 731.5,1580.67 730.5,1580.67 729.5,1580C 723.033,1575.37 717.033,1570.2 711.5,1564.5C 714.686,1560.48 718.353,1556.98 722.5,1554C 734.184,1547.16 746.184,1540.82 758.5,1535C 786.5,1523.17 814.833,1512.17 843.5,1502C 822.474,1494.27 801.141,1487.44 779.5,1481.5C 777.628,1489.91 774.128,1497.58 769,1504.5C 751.761,1526.05 729.594,1539.88 702.5,1546C 667.369,1553.42 632.036,1554.42 596.5,1549C 570.741,1545.82 545.408,1540.65 520.5,1533.5C 548.771,1499.55 582.771,1473.05 622.5,1454C 639.8,1446.51 657.8,1441.51 676.5,1439C 645.115,1423.56 613.948,1407.72 583,1391.5C 563.477,1418.69 536.977,1434.19 503.5,1438C 475.574,1440.34 448.241,1437.34 421.5,1429C 382.708,1416.41 346.042,1399.41 311.5,1378C 348.087,1352.21 388.42,1334.88 432.5,1326C 444.759,1324.12 457.092,1323.12 469.5,1323C 450.112,1307.95 431.612,1291.78 414,1274.5C 396.755,1291.95 375.755,1300.61 351,1300.5C 332.504,1299.73 314.67,1295.9 297.5,1289C 262.111,1272.98 230.111,1251.98 201.5,1226C 191.53,1217.03 181.863,1207.7 172.5,1198C 216.02,1182.14 260.686,1177.48 306.5,1184C 319.318,1186.33 331.651,1190.16 343.5,1195.5C 343.833,1195.17 344.167,1194.83 344.5,1194.5C 324.791,1167.61 306.458,1139.78 289.5,1111C 267.799,1121.54 245.132,1123.88 221.5,1118C 207.453,1113.98 194.119,1108.31 181.5,1101C 146.538,1077.71 116.372,1049.21 91,1015.5C 84.0101,1006.85 77.5101,997.853 71.5,988.5C 115.577,981.196 158.91,984.363 201.5,998C 216.112,1003.97 229.779,1010.81 242.5,1018.5C 230.393,991.619 219.393,964.285 209.5,936.5C 176.821,942.081 147.154,934.914 120.5,915C 93.0593,891.549 72.5593,863.049 59,829.5C 48.3654,803.929 39.5321,777.763 32.5,751C 78.3356,757.09 119.336,774.423 155.5,803C 163.333,809.5 170.5,816.667 177,824.5C 171.282,791.087 167.449,757.42 165.5,723.5C 131.182,718.589 105.682,700.922 89,670.5C 74.9128,642.489 66.5794,612.822 64,581.5C 61.1985,553.862 60.8652,526.195 63,498.5C 63.2492,497.376 63.7492,496.376 64.5,495.5C 105.772,517.938 139.605,548.604 166,587.5C 168.333,591.833 170.667,596.167 173,600.5C 177.697,571.88 184.197,543.714 192.5,516C 166.274,507.442 148.107,490.276 138,464.5C 129.955,442.561 126.121,419.894 126.5,396.5C 127.644,356.967 133.978,318.3 145.5,280.5C 179.189,308.22 204.356,342.22 221,382.5C 224.767,393.234 227.434,404.234 229,415.5C 239.398,391.537 251.231,368.37 264.5,346C 245.224,335.722 232.057,320.222 225,299.5C 218.527,277.884 216.86,255.884 220,233.5C 227.34,188.481 241.673,145.814 263,105.5C 291.469,139.178 309.802,177.844 318,221.5C 319.56,235.52 319.894,249.52 319,263.5C 325.287,254.878 331.953,246.545 339,238.5C 343.024,186.532 367.857,148.365 413.5,124C 446.783,107.765 481.783,98.2648 518.5,95.5 Z"/></g>
<g><path style="opacity:1" fill="#c8df91" d="M 436.5,156.5 C 438.379,156.393 438.712,156.893 437.5,158C 424.403,164.107 412.07,171.44 400.5,180C 389.373,188.791 378.54,197.958 368,207.5C 367.685,206.092 368.018,204.759 369,203.5C 385.431,178.87 407.931,163.203 436.5,156.5 Z"/></g>
<g><path style="opacity:1" fill="#c8df91" d="M 1333.5,158.5 C 1334.1,157.861 1334.93,157.528 1336,157.5C 1366.37,164.908 1388.7,182.241 1403,209.5C 1382.73,188.46 1359.57,171.46 1333.5,158.5 Z"/></g>
<g><path style="opacity:1" fill="#c9df92" d="M 1493.5,213.5 C 1494.1,213.735 1494.43,214.235 1494.5,215C 1487.78,242.413 1484.95,270.246 1486,298.5C 1476.6,269.092 1479.1,240.758 1493.5,213.5 Z"/></g>
<g><path style="opacity:1" fill="#c8df92" d="M 274.5,212.5 C 278.332,216.819 281.165,221.819 283,227.5C 291.665,251.855 291.665,276.188 283,300.5C 284.848,270.705 282.015,241.371 274.5,212.5 Z"/></g>
<g><path style="opacity:1" fill="#c8df92" d="M 360.5,316.5 C 370.172,316.334 379.839,316.5 389.5,317C 395.033,317.511 400.367,318.844 405.5,321C 376.596,320.889 348.263,324.722 320.5,332.5C 319.304,332.154 319.304,331.654 320.5,331C 333.027,323.66 346.36,318.827 360.5,316.5 Z"/></g>
<g><path style="opacity:1" fill="#c8df92" d="M 1377.5,316.5 C 1403.64,313.56 1427.97,318.727 1450.5,332C 1434.31,328.689 1417.97,325.689 1401.5,323C 1389.19,321.987 1376.85,321.321 1364.5,321C 1368.89,319.329 1373.23,317.829 1377.5,316.5 Z"/></g>
<g><path style="opacity:0.99" fill="#cae094" d="M 883.5,345.5 C 925.22,373.049 970.22,394.215 1018.5,409C 1088.51,430.169 1159.84,445.002 1232.5,453.5C 1235.6,545.093 1229.76,636.093 1215,726.5C 1207.46,770.454 1195.46,813.121 1179,854.5C 1127.94,986.21 1044.77,1092.71 929.5,1174C 915.237,1184.05 900.403,1193.22 885,1201.5C 793.99,1148.5 718.99,1078.16 660,990.5C 642.877,963.929 627.543,936.262 614,907.5C 605.942,888.383 597.608,869.383 589,850.5C 566.907,791.711 552.574,731.044 546,668.5C 538.006,597.038 535.172,525.371 537.5,453.5C 623.387,443.945 707.053,424.778 788.5,396C 822.894,383.809 854.561,366.976 883.5,345.5 Z"/></g>
<g><path style="opacity:1" fill="#c7df91" d="M 177.5,383.5 C 192.441,399.442 200.941,418.442 203,440.5C 203.776,449.874 203.442,459.207 202,468.5C 197.799,438.979 189.633,410.645 177.5,383.5 Z"/></g>
<g><path style="opacity:1" fill="#c8df91" d="M 1590.5,384.5 C 1591.04,384.56 1591.38,384.893 1591.5,385.5C 1579.31,411.917 1571.47,439.584 1568,468.5C 1564.27,444.682 1567.93,422.015 1579,400.5C 1582.28,394.73 1586.11,389.397 1590.5,384.5 Z"/></g>
<g><path style="opacity:1" fill="#91c150" d="M 884.5,395.5 C 911.807,415.157 941.474,430.657 973.5,442C 1041.13,465.094 1110.47,480.594 1181.5,488.5C 1185.51,580.15 1178.01,670.817 1159,760.5C 1153.78,780.381 1147.78,800.048 1141,819.5C 1095.02,944.363 1016.52,1043.2 905.5,1116C 898.893,1120.22 892.06,1124.05 885,1127.5C 797.443,1076.61 727.777,1007.61 676,920.5C 658.757,888.791 643.423,856.124 630,822.5C 612.506,773.525 600.84,723.192 595,671.5C 588.68,610.666 586.18,549.666 587.5,488.5C 661.364,480.201 733.364,463.701 803.5,439C 832.951,428.615 859.951,414.115 884.5,395.5 Z"/></g>
<g><path style="opacity:1" fill="#c8df92" d="M 312.5,451.5 C 320.893,451.17 329.227,451.67 337.5,453C 326.347,454.594 315.347,456.927 304.5,460C 287.476,465.78 270.81,472.113 254.5,479C 271.181,464.159 290.514,454.992 312.5,451.5 Z"/></g>
<g><path style="opacity:1" fill="#c7df91" d="M 1437.5,451.5 C 1467.77,450.421 1494.11,459.921 1516.5,480C 1500.61,472.903 1484.28,466.57 1467.5,461C 1455.64,457.69 1443.64,455.023 1431.5,453C 1433.71,452.809 1435.71,452.309 1437.5,451.5 Z"/></g>
<g><path style="opacity:1" fill="#c7df91" d="M 115.5,592.5 C 141.79,613.412 155.623,640.745 157,674.5C 147.087,645.006 133.254,617.673 115.5,592.5 Z"/></g>
<g><path style="opacity:1" fill="#c7df91" d="M 1652.5,592.5 C 1653.24,592.369 1653.91,592.536 1654.5,593C 1636.35,617.465 1622.52,644.299 1613,673.5C 1614.42,640.669 1627.58,613.669 1652.5,592.5 Z"/></g>
<g><path style="opacity:1" fill="#fdfefc" d="M 871.5,601.5 C 904.449,599.431 934.782,607.264 962.5,625C 955.455,627.543 948.288,629.71 941,631.5C 918.042,626.718 895.209,621.551 872.5,616C 867.993,612.324 863.659,608.49 859.5,604.5C 863.54,603.176 867.54,602.176 871.5,601.5 Z"/></g>
<g><path style="opacity:1" fill="#c8df91" d="M 279.5,612.5 C 280.552,612.351 281.552,612.517 282.5,613C 257.931,628.888 235.764,647.721 216,669.5C 221.616,655.835 230.116,644.002 241.5,634C 252.908,624.467 265.575,617.3 279.5,612.5 Z"/></g>
<g><path style="opacity:1" fill="#c8df92" d="M 1486.5,613.5 C 1486.74,612.903 1487.24,612.57 1488,612.5C 1516.15,620.986 1537.48,637.986 1552,663.5C 1553.59,665.65 1554.26,667.983 1554,670.5C 1534.59,647.568 1512.09,628.568 1486.5,613.5 Z"/></g>
<g><path style="opacity:1" fill="#fefefd" d="M 873.5,619.5 C 893.546,623.344 913.546,627.511 933.5,632C 935.519,632.45 937.352,633.283 939,634.5C 943.401,648.536 947.901,662.536 952.5,676.5C 943.344,685.488 934.011,694.322 924.5,703C 903.994,699.807 883.661,695.64 863.5,690.5C 857.641,678.92 851.974,667.253 846.5,655.5C 855.549,643.463 864.549,631.463 873.5,619.5 Z"/></g>
<g><path style="opacity:1" fill="#fcfdfb" d="M 792.5,662.5 C 784.135,676.892 776.135,691.558 768.5,706.5C 767.404,708.103 766.07,709.603 764.5,711C 758.418,714.123 752.585,717.623 747,721.5C 751.951,685.265 768.618,655.598 797,632.5C 797.667,639.5 797.667,646.5 797,653.5C 795.487,656.527 793.987,659.527 792.5,662.5 Z"/></g>
<g><path style="opacity:1" fill="#fefefe" d="M 769.5,707.5 C 777.738,693.363 785.738,679.03 793.5,664.5C 794.777,661.447 796.444,658.614 798.5,656C 813.844,655.167 829.178,655.334 844.5,656.5C 850.439,668.044 856.106,679.711 861.5,691.5C 851.04,709.585 840.707,727.752 830.5,746C 817.875,747.7 805.208,748.367 792.5,748C 784.375,735.585 776.375,723.085 768.5,710.5C 769.127,709.583 769.461,708.583 769.5,707.5 Z"/></g>
<g><path style="opacity:1" fill="#fcfdfb" d="M 1005.5,673.5 C 1006.5,673.414 1007.33,673.748 1008,674.5C 1025.51,707.719 1029.17,742.385 1019,778.5C 1014.67,772.167 1010.33,765.833 1006,759.5C 1002.11,738.683 999.272,717.683 997.5,696.5C 997.667,694.833 997.833,693.167 998,691.5C 1000.79,685.593 1003.29,679.593 1005.5,673.5 Z"/></g>
<g><path style="opacity:1" fill="#9ec766" d="M 792.5,662.5 C 792.328,663.492 792.662,664.158 793.5,664.5C 785.738,679.03 777.738,693.363 769.5,707.5C 769.5,706.833 769.167,706.5 768.5,706.5C 776.135,691.558 784.135,676.892 792.5,662.5 Z"/></g>
<g><path style="opacity:1" fill="#fefefd" d="M 953.5,678.5 C 967.143,683.827 980.81,689.16 994.5,694.5C 997.166,714.497 999.833,734.497 1002.5,754.5C 1002.67,756.693 1002.01,758.527 1000.5,760C 988.947,768.396 977.28,776.562 965.5,784.5C 954.713,779.273 944.046,773.773 933.5,768C 931.996,766.509 931.163,764.676 931,762.5C 928.872,743.172 927.206,723.838 926,704.5C 935.365,695.967 944.531,687.3 953.5,678.5 Z"/></g>
<g><path style="opacity:1" fill="#fefefd" d="M 819.5,841.5 C 806.471,826.808 793.471,812.141 780.5,797.5C 778.667,795.504 778.167,793.171 779,790.5C 783.61,777.502 788.11,764.502 792.5,751.5C 805.776,749.705 819.11,748.871 832.5,749C 845.333,763.167 858.167,777.333 871,791.5C 869.762,805.124 866.929,818.457 862.5,831.5C 848.155,834.839 833.821,838.172 819.5,841.5 Z"/></g>
<g><path style="opacity:1" fill="#fefefe" d="M 959.5,833.5 C 941.646,841.264 923.979,849.264 906.5,857.5C 904.255,858.635 901.922,859.135 899.5,859C 888.621,849.786 877.454,840.953 866,832.5C 868.074,819.07 870.908,805.737 874.5,792.5C 892.721,784.222 911.055,776.222 929.5,768.5C 941.113,773.973 952.447,779.973 963.5,786.5C 963.833,789 964.167,791.5 964.5,794C 963.834,806.493 963.334,818.993 963,831.5C 961.887,832.305 960.721,832.972 959.5,833.5 Z"/></g>
<g><path style="opacity:1" fill="#fdfefc" d="M 779.5,798.5 C 792.156,813.821 805.156,828.821 818.5,843.5C 820.001,851.162 821.168,858.829 822,866.5C 789.098,848.763 765.932,822.43 752.5,787.5C 760.074,789.412 767.741,791.912 775.5,795C 776.705,796.376 778.038,797.542 779.5,798.5 Z"/></g>
<g><path style="opacity:1" fill="#c7df91" d="M 278.5,795.5 C 274.992,801.571 270.159,807.238 264,812.5C 249.703,829.811 237.37,848.477 227,868.5C 233.064,836.279 250.231,811.946 278.5,795.5 Z"/></g>
<g><path style="opacity:1" fill="#c7df91" d="M 1489.5,796.5 C 1489.56,795.957 1489.89,795.624 1490.5,795.5C 1517.56,811.077 1535.06,834.077 1543,864.5C 1543.67,866.167 1543.67,867.833 1543,869.5C 1529.17,842.176 1511.33,817.843 1489.5,796.5 Z"/></g>
<g><path style="opacity:1" fill="#9bc661" d="M 780.5,797.5 C 793.471,812.141 806.471,826.808 819.5,841.5C 818.662,841.842 818.328,842.508 818.5,843.5C 805.156,828.821 792.156,813.821 779.5,798.5C 779.5,797.833 779.833,797.5 780.5,797.5 Z"/></g>
<g><path style="opacity:1" fill="#c8df92" d="M 1651.5,826.5 C 1652.55,826.351 1653.55,826.517 1654.5,827C 1630.37,844.794 1609.21,865.628 1591,889.5C 1592.1,884.273 1594.1,879.273 1597,874.5C 1610.09,852.57 1628.25,836.57 1651.5,826.5 Z"/></g>
<g><path style="opacity:1" fill="#c8df92" d="M 114.5,827.5 C 114.735,826.903 115.235,826.57 116,826.5C 146.84,838.338 167.84,859.672 179,890.5C 161.249,865.582 139.749,844.582 114.5,827.5 Z"/></g>
<g><path style="opacity:1" fill="#fdfefc" d="M 893.5,880.5 C 891.265,880.795 889.265,880.461 887.5,879.5C 891.573,873.253 896.24,867.419 901.5,862C 903.86,860.82 906.193,859.653 908.5,858.5C 926.137,851.013 943.471,843.013 960.5,834.5C 969.84,833.095 979.173,833.262 988.5,835C 963.079,863.042 931.413,878.209 893.5,880.5 Z"/></g>
<g><path style="opacity:1" fill="#9cc663" d="M 959.5,833.5 C 959.5,834.167 959.833,834.5 960.5,834.5C 943.471,843.013 926.137,851.013 908.5,858.5C 908.158,857.662 907.492,857.328 906.5,857.5C 923.979,849.264 941.646,841.264 959.5,833.5 Z"/></g>
<g><path style="opacity:1" fill="#ccdfad" d="M 887.5,879.5 C 889.265,880.461 891.265,880.795 893.5,880.5C 891.034,881.634 888.367,881.801 885.5,881C 886.044,880.283 886.711,879.783 887.5,879.5 Z"/></g>
<g><path style="opacity:1" fill="#c8df92" d="M 319.5,966.5 C 320.043,966.56 320.376,966.893 320.5,967.5C 306.382,994.642 296.882,1023.31 292,1053.5C 288.449,1020.33 297.616,991.325 319.5,966.5 Z"/></g>
<g><path style="opacity:1" fill="#c7df91" d="M 1449.5,967.5 C 1461.2,978.882 1469.37,992.548 1474,1008.5C 1478.38,1023.24 1479.55,1038.24 1477.5,1053.5C 1472.48,1023.4 1463.14,994.729 1449.5,967.5 Z"/></g>
<g><path style="opacity:1" fill="#c7df91" d="M 174.5,1032.5 C 207.658,1032.23 235.658,1044.4 258.5,1069C 243.834,1061.16 228.834,1053.5 213.5,1046C 200.787,1040.6 187.787,1036.1 174.5,1032.5 Z"/></g>
<g><path style="opacity:1" fill="#c7df91" d="M 1580.5,1031.5 C 1585.51,1031.33 1590.51,1031.5 1595.5,1032C 1583.69,1035.54 1572.03,1039.54 1560.5,1044C 1543.58,1051.69 1527.25,1060.02 1511.5,1069C 1530.18,1048.66 1553.18,1036.16 1580.5,1031.5 Z"/></g>
<g><path style="opacity:1" fill="#c8df92" d="M 415.5,1115.5 C 416.139,1116.1 416.472,1116.93 416.5,1118C 409.959,1146.83 407.793,1176 410,1205.5C 406.773,1197.82 404.773,1189.82 404,1181.5C 400.637,1158.14 404.471,1136.14 415.5,1115.5 Z"/></g>
<g><path style="opacity:1" fill="#c7de90" d="M 1352.5,1114.5 C 1360.66,1126.48 1365.16,1139.82 1366,1154.5C 1367.8,1171.66 1365.8,1188.33 1360,1204.5C 1359.67,1186.17 1359.33,1167.83 1359,1149.5C 1357.26,1137.74 1355.1,1126.07 1352.5,1114.5 Z"/></g>
<g><path style="opacity:1" fill="#c7de90" d="M 296.5,1219.5 C 324.668,1219.17 350.001,1227.33 372.5,1244C 357.644,1239.16 342.644,1234.49 327.5,1230C 312.973,1226.68 298.307,1224.18 283.5,1222.5C 287.906,1221.25 292.24,1220.25 296.5,1219.5 Z"/></g>
<g><path style="opacity:1" fill="#c8df92" d="M 1449.5,1220.5 C 1460.17,1220.33 1470.84,1220.5 1481.5,1221C 1482.62,1221.25 1483.62,1221.75 1484.5,1222.5C 1473.11,1224.01 1461.78,1225.84 1450.5,1228C 1432.4,1232.37 1414.74,1237.7 1397.5,1244C 1413.04,1232.06 1430.37,1224.23 1449.5,1220.5 Z"/></g>
<g><path style="opacity:1" fill="#c7df91" d="M 548.5,1233.5 C 549.209,1248.68 550.043,1264.02 551,1279.5C 552.59,1294.7 554.923,1309.7 558,1324.5C 541.575,1295.54 538.408,1265.21 548.5,1233.5 Z"/></g>
<g><path style="opacity:1" fill="#c8df92" d="M 1220.5,1234.5 C 1223.39,1239.71 1225.22,1245.38 1226,1251.5C 1229.05,1278.19 1224.05,1303.19 1211,1326.5C 1214.28,1310.67 1216.95,1294.67 1219,1278.5C 1220.12,1263.85 1220.62,1249.19 1220.5,1234.5 Z"/></g>
<g><path style="opacity:1" fill="#c8df91" d="M 700.5,1328.5 C 707.728,1359.33 719.395,1388.5 735.5,1416C 732.907,1415.45 730.74,1413.95 729,1411.5C 708.453,1387.69 698.953,1360.03 700.5,1328.5 Z"/></g>
<g><path style="opacity:1" fill="#c8df92" d="M 1068.5,1329.5 C 1070.81,1363.56 1059.65,1392.56 1035,1416.5C 1042.2,1401.76 1049.2,1386.76 1056,1371.5C 1061.08,1357.76 1065.25,1343.76 1068.5,1329.5 Z"/></g>
<g><path style="opacity:1" fill="#c8df92" d="M 463.5,1364.5 C 486.465,1362.36 508.465,1365.86 529.5,1375C 512.251,1373.13 494.918,1371.96 477.5,1371.5C 461.712,1371.78 446.046,1372.95 430.5,1375C 441.017,1369.55 452.017,1366.05 463.5,1364.5 Z"/></g>
<g><path style="opacity:1" fill="#c8df92" d="M 1277.5,1364.5 C 1299.17,1362.28 1319.84,1365.78 1339.5,1375C 1323.6,1373 1307.6,1371.83 1291.5,1371.5C 1275.25,1371.84 1259.08,1373.17 1243,1375.5C 1242.17,1375.33 1241.33,1375.17 1240.5,1375C 1252.46,1369.65 1264.8,1366.15 1277.5,1364.5 Z"/></g>
<g><path style="opacity:1" fill="#c7df91" d="M 1047.5,1467.5 C 1071.46,1466.44 1094.13,1471.27 1115.5,1482C 1122.37,1485.93 1128.7,1490.6 1134.5,1496C 1104.69,1483.46 1073.69,1474.46 1041.5,1469C 1043.71,1468.81 1045.71,1468.31 1047.5,1467.5 Z"/></g>
<g><path style="opacity:1" fill="#c7df91" d="M 701.5,1467.5 C 710.226,1467.16 718.893,1467.66 727.5,1469C 710.02,1472.36 692.686,1476.36 675.5,1481C 661.169,1485.85 647.169,1491.18 633.5,1497C 653.045,1479.88 675.711,1470.04 701.5,1467.5 Z"/></g>
</svg>
